<?xml version="1.0" encoding="UTF-8"?>
<svg width="127px" height="28px" viewBox="0 0 127 28" version="1.1" xmlns="http://www.w3.org/2000/svg" xmlns:xlink="http://www.w3.org/1999/xlink">
    <!-- Generator: Sketch 42 (36781) - http://www.bohemiancoding.com/sketch -->
    <title>bnpf-logo</title>
    <desc>Created with Sketch.</desc>
    <defs>
        <linearGradient x1="49.9889746%" y1="-2.46968026%" x2="49.9889746%" y2="103.109151%" id="linearGradient-1">
            <stop stop-color="#00774A" offset="0%"></stop>
            <stop stop-color="#8CCAAE" offset="60%"></stop>
            <stop stop-color="#00975F" offset="100%"></stop>
        </linearGradient>
        <linearGradient x1="49.9959691%" y1="-28.0241467%" x2="49.9959691%" y2="96.8887857%" id="linearGradient-2">
            <stop stop-color="#00975F" offset="0%"></stop>
            <stop stop-color="#8CCAAE" offset="30%"></stop>
            <stop stop-color="#00975F" offset="55%"></stop>
            <stop stop-color="#00774A" offset="84%"></stop>
            <stop stop-color="#008052" offset="89%"></stop>
            <stop stop-color="#009869" offset="98%"></stop>
            <stop stop-color="#00A070" offset="100%"></stop>
        </linearGradient>
        <linearGradient x1="49.8342541%" y1="226.030085%" x2="49.8342541%" y2="-1.63505559%" id="linearGradient-3">
            <stop stop-color="#00A97C" offset="0%"></stop>
            <stop stop-color="#00975F" offset="100%"></stop>
        </linearGradient>
        <linearGradient x1="963%" y1="543%" x2="963%" y2="4026%" id="linearGradient-4">
            <stop stop-color="#00A97C" offset="0%"></stop>
            <stop stop-color="#00975F" offset="100%"></stop>
        </linearGradient>
        <linearGradient x1="1637%" y1="544%" x2="1637%" y2="4025%" id="linearGradient-5">
            <stop stop-color="#00A97C" offset="0%"></stop>
            <stop stop-color="#00975F" offset="100%"></stop>
        </linearGradient>
        <linearGradient x1="2215%" y1="544%" x2="2215%" y2="4025%" id="linearGradient-6">
            <stop stop-color="#00A97C" offset="0%"></stop>
            <stop stop-color="#00975F" offset="100%"></stop>
        </linearGradient>
    </defs>
    <g id="Symbols" stroke="none" stroke-width="1" fill="none" fill-rule="evenodd">
        <g id="atoms/logos/client-logo">
            <g id="bnpf-logo">
                <g id="Layer_1">
                    <polygon id="Shape" fill="url(#linearGradient-1)" points="0 0 27.167217 0 27.167217 27.6043478 0 27.6043478"></polygon>
                    <path d="M26.3584906,13.9634783 C26.3584906,19.7278261 26.6220755,25.626087 26.6220755,25.626087 C26.6670357,26.1736108 26.2681093,26.6551284 25.7294811,26.7034783 L2.12066038,26.7034783 C1.58805535,26.6353472 1.190859,26.1714838 1.19811321,25.626087 C0.705776484,21.4001889 0.469701883,17.1475229 0.491226415,12.8921739 C0.491226415,5.19217391 1.19811321,1.57043478 1.19811321,1.57043478 C1.18496836,1.02170339 1.58434276,0.552661266 2.12066038,0.486956522 L25.6396226,0.486956522 C26.196744,0.519652807 26.6227698,1.00426144 26.5921226,1.57043478 C26.5921226,1.57043478 26.3584906,8.19913043 26.3584906,13.9634783 Z" id="Shape" fill="url(#linearGradient-2)"></path>
                    <path d="M21.0987736,7.45652174 C19.4214151,8.45478261 18.9062264,8.53391304 17.0850943,9.64782609 L17.1749528,9.44086957 C17.9075355,8.68736925 18.5768176,7.87293688 19.1758019,7.00608696 C17.2031441,7.09130208 15.2391196,7.32117546 13.2990566,7.69391304 L13.3889151,7.50521739 C15.3167249,6.66170964 17.3415393,6.06862378 19.4154245,5.74 C19.05,5.21652174 16.0666981,3.57913043 15.3238679,3.2626087 L15.4137264,3.04347826 C17.7198168,3.36096494 19.9514685,4.09482974 22.0033491,5.21043478 C22.7045709,5.0401781 23.421285,4.94430254 24.1419811,4.92434783 C24.1419811,4.92434783 23.992217,5.53304348 22.8779717,6.33043478 C23.1535377,7.08521739 22.4885849,11.2486957 21.9434434,12.3504348 C21.8835377,10.6095652 21.7337736,8.41217391 21.0987736,7.45652174 Z" id="Shape" fill="url(#linearGradient-3)"></path>
                    <path d="M8.82410377,22.3817391 L8.9079717,22.1869565 C7.99561248,21.9190553 7.1445383,21.4701205 6.40391509,20.866087 C6.6272636,20.2327545 6.93353828,19.6328702 7.31448113,19.0826087 L7.40433962,18.8695652 C6.63754717,18.9852174 5.94264151,19.2713043 5.27768868,19.4052174 C4.79246281,18.3153531 4.45975414,17.1618443 4.28924528,15.9782609 L4.19339623,16.1913043 C4.02160879,17.3473613 4.02160879,18.5230734 4.19339623,19.6791304 C3.69332927,19.7728162 3.19922397,19.8968056 2.71372642,20.0504348 L2.62985849,20.2391304 C3.30015353,20.6705814 3.99642663,21.0588802 4.71457547,21.4017391 C5.09207395,22.262365 5.63133078,23.0398106 6.30207547,23.6904348 L6.39193396,23.4956522 C6.21715636,22.9981842 6.13784797,22.4712856 6.15830189,21.9434783 C7.0232241,22.2117553 7.92005217,22.3591948 8.82410377,22.3817391 Z" id="Shape" fill="url(#linearGradient-4)"></path>
                    <path d="M11.2982075,8.52173913 C11.0419372,9.00382585 10.8255323,9.50671529 10.6512264,10.0252174 L10.5853302,10.0252174 C12.1733213,10.2538083 13.7146833,10.740922 15.1501415,11.4678261 L15.060283,11.6565217 C13.705737,11.3703088 12.3181666,11.280141 10.9387736,11.3886957 C10.6075709,11.3946198 10.2796293,11.4563269 9.96830189,11.5713043 C9.56667316,12.6527828 9.28145783,13.7752652 9.11764151,14.9191304 L9.02778302,15.113913 C8.63240566,14.133913 8.05731132,12.173913 8.05731132,12.173913 C6.96103774,12.7826087 4.4629717,15.1747826 4.4629717,15.1747826 C5.16045803,13.6563328 6.10640987,12.2691158 7.26056604,11.0721739 C6.77533019,10.5791304 5.50533019,10.3478261 4.58278302,10.2869565 L4.66665094,10.0982609 C5.51696768,9.9234804 6.38117914,9.82772286 7.24858491,9.81217391 C7.75538582,9.78321605 8.26338776,9.78321605 8.77018868,9.81217391 C9.5256691,9.22459845 10.3832843,8.78682624 11.2982075,8.52173913 L11.2982075,8.52173913 Z" id="Shape" fill="url(#linearGradient-5)"></path>
                    <path d="M13.9640094,20.6286957 C13.5601326,21.1960191 13.1261735,21.7405923 12.6640566,22.26 C11.9267192,22.3913059 11.1769916,22.4362373 10.4295755,22.393913 L10.3457075,22.5886957 C10.8202209,22.8354599 11.3263165,23.013702 11.8493396,23.1182609 C11.4117688,23.4727059 10.9492604,23.7941438 10.4655189,24.08 L10.3756604,24.2686957 C11.3546876,24.0458594 12.2983175,23.6852801 13.1792453,23.1973913 C13.557929,23.2190771 13.9378112,23.1966118 14.3114623,23.1304348 L14.3773585,22.9356522 C14.2678675,22.7414859 14.1756464,22.5377796 14.1017925,22.3269565 C14.8089091,21.7652918 15.4774167,21.1551743 16.1026415,20.5008696 L16.1745283,20.306087 C15.4848216,20.8407751 14.7558356,21.3210193 13.9939623,21.7426087 C14.0059434,21.3713043 13.9819811,21.0547826 13.9640094,20.6286957 Z" id="Shape" fill="url(#linearGradient-6)"></path>
                    <path d="M21.1826415,7.26173913 C19.505283,8.26608696 18.9900943,8.34521739 17.1689623,9.45913043 C17.9425961,8.6420088 18.6423185,7.7558288 19.2596698,6.81130435 C17.2908658,6.89507425 15.3307216,7.12496215 13.3949057,7.49913043 C15.3353301,6.56321929 17.3935062,5.90367344 19.5112736,5.53913043 C19.1698113,5.02173913 16.1745283,3.37826087 15.4137264,3.04347826 C17.7371915,3.24536103 19.9977446,3.9158152 22.0632547,5.01565217 C22.7674692,4.85259044 23.4858535,4.76083778 24.2078774,4.74173913 C23.9503999,5.33994498 23.5004623,5.83146425 22.9318868,6.13565217 C23.2074528,6.89043478 22.5425,11.053913 21.9973585,12.1556522 C21.9733962,10.4147826 21.8236321,8.2173913 21.1826415,7.26173913 Z M8.9079717,22.1869565 C8.01246007,21.8630776 7.19545452,21.3483837 6.51174528,20.6773913 C6.72776893,20.0309602 7.02796508,19.416813 7.40433962,18.8513043 C6.61957547,18.9730435 6.04448113,19.0582609 5.36754717,19.1921739 L5.39150943,19.1921739 C4.86277242,18.1809674 4.4986283,17.0894575 4.31320755,15.96 C4.13903428,17.1260769 4.13903428,18.3121839 4.31320755,19.4782609 C3.77578308,19.6208118 3.25083122,19.808112 2.74367925,20.0382609 C3.40274998,20.4713316 4.08691546,20.8636374 4.79245283,21.2130435 C5.17240195,22.0720078 5.71368298,22.8473703 6.3859434,23.4956522 C6.21936746,22.9297538 6.17040683,22.3348455 6.24216981,21.7486957 C7.10705826,22.0171203 8.00390633,22.1645631 8.9079717,22.1869565 Z M11.4180189,8.35130435 C11.1001227,8.80451865 10.8498144,9.30293495 10.6751887,9.83043478 C12.257108,10.0766784 13.7768993,10.6327721 15.1501415,11.4678261 C13.793932,11.1789033 12.404004,11.0887133 11.0226415,11.2 C10.6920394,11.2067363 10.3645411,11.2663059 10.0521698,11.3765217 C9.61918898,12.5208019 9.30595372,13.7082138 9.11764151,14.9191304 C8.72226415,13.9513043 8.15316038,12.0095652 8.15316038,12.0095652 C7.05688679,12.6182609 4.55882075,15.0165217 4.55882075,15.0165217 C5.25102089,13.4964953 6.19531555,12.108737 7.35042453,10.913913 C6.86518868,10.4147826 5.59518868,10.1652174 4.67264151,10.1286957 C5.53695346,9.8515959 6.43307704,9.68994902 7.3384434,9.64782609 C7.84725745,9.61940717 8.35722369,9.61940717 8.86603774,9.64782609 C9.62899953,9.05661479 10.4947625,8.61676808 11.4180189,8.35130435 L11.4180189,8.35130435 Z M14.0478774,20.44 C13.6419053,21.0056903 13.2080334,21.550154 12.7479245,22.0713043 C11.9952088,22.2959002 11.2140476,22.4066533 10.4295755,22.4 C10.9043026,22.646255 11.4103267,22.824472 11.9332075,22.9295652 C11.4783892,23.3563497 10.987238,23.7413342 10.4655189,24.08 C11.4424834,23.8566241 12.3840627,23.4960579 13.2631132,23.0086957 C13.6440092,23.027528 14.0257833,23.0030279 14.4013208,22.9356522 C14.3237612,22.6800548 14.2617417,22.4198538 14.2156132,22.1565217 C14.9240571,21.5964677 15.5926716,20.9862526 16.2164623,20.3304348 C15.5566421,20.7987043 14.8569566,21.2061219 14.1257547,21.5478261 C14.0898113,21.1826087 14.0718396,20.86 14.0478774,20.44 Z" id="Shape" fill="#FFFFFF"></path>
                    <polygon id="Shape" fill="#E63312" points="34.1941509 14.2678261 126.14934 14.2678261 126.14934 15.6617391 34.1941509 15.6617391"></polygon>
                    <path d="M34.2360849,2.60521739 C34.3079717,3.56695652 34.3558962,5.97130435 34.3558962,6.86608696 C34.3558962,7.76086957 34.3558962,10.3782609 34.2241038,11.5469565 L34.2241038,11.6443478 L38.4175,11.6443478 C40.4542925,11.6443478 42.6108962,10.9869565 42.6108962,9.1426087 C42.6108962,7.98608696 41.7841981,7.12782609 40.2146698,6.65913043 C41.3468868,6.35478261 42.1136792,5.55130435 42.1136792,4.63826087 C42.1136792,3.13478261 40.4063679,2.5626087 38.8128774,2.53217391 L34.2300943,2.53217391 L34.2300943,2.60521739 L34.2300943,2.60521739 L34.2360849,2.60521739 Z M37.4590094,3.53043478 C39.2022642,3.53043478 39.8552358,3.90173913 39.8552358,4.86956522 C39.8591442,5.11404041 39.7761979,5.35175578 39.6216038,5.53913043 C39.1369043,5.99334519 38.4775583,6.20326446 37.824434,6.11130435 L37.740566,6.11130435 L37.2613208,7.39565217 L37.740566,7.39565217 C38.5616165,7.31315401 39.3756153,7.61046161 39.9570755,8.20521739 C40.1499992,8.4341714 40.2562077,8.72554863 40.2566038,9.02695652 C40.2566038,10.0434783 39.3879717,10.5608696 37.6686792,10.5608696 L36.6143396,10.5608696 C36.5424528,9.20956522 36.5424528,7.38956522 36.5424528,6.85391304 C36.5424528,6.31826087 36.5424528,4.79652174 36.6083491,3.59130435 C36.8898239,3.54821617 37.174433,3.52988732 37.4590094,3.53652174 L37.4590094,3.53652174 L37.4590094,3.53043478 Z M52.207783,2.51391304 L50.1889623,2.51391304 L50.2728302,4.80869565 C50.3087736,5.95304348 50.344717,7.11565217 50.4225943,8.24782609 C50.1916922,7.73556617 49.9043017,7.25159769 49.5659434,6.80521739 C49.5659434,6.77478261 47.445283,3.46956522 46.714434,2.54434783 L44.3301887,2.54434783 L44.3301887,2.60521739 C44.3960849,3.56695652 44.45,5.96521739 44.45,6.86608696 C44.45,7.76695652 44.4440094,10.3478261 44.3301887,11.5652174 L44.3301887,11.6626087 L46.4268868,11.6626087 L46.4268868,11.5652174 C46.3010849,9.33130435 46.3010849,7.09130435 46.3010849,4.91826087 C46.4089991,5.27879869 46.5794098,5.61685858 46.8042925,5.91652174 C46.8402358,5.97130435 50.4345755,11.3095652 50.620283,11.626087 L50.620283,11.6626087 L52.2976415,11.6626087 L52.2976415,11.5652174 C52.1718396,10.3965217 52.1658491,7.68782609 52.1658491,6.87826087 C52.1658491,6.06869565 52.2197642,3.58521739 52.2856604,2.6173913 L52.2856604,2.51391304 L52.207783,2.51391304 Z M54.6459434,2.59913043 C54.7118396,3.56086957 54.7657547,5.96521739 54.7657547,6.86 C54.7657547,7.75478261 54.7657547,10.3721739 54.6339623,11.5408696 L54.6339623,11.626087 L57.1320283,11.626087 L57.1320283,11.5652174 C57.0421698,10.7313043 57.012217,9.13043478 57.0062264,7.91304348 L57.8149528,7.91304348 C61.1037736,7.91304348 62.7032547,7.01826087 62.7032547,5.16782609 C62.7032547,3.05565217 60.462783,2.5626087 58.5817453,2.52608696 L54.6399528,2.52608696 L54.6399528,2.59913043 L54.6399528,2.59913043 L54.6459434,2.59913043 Z M57.7071226,3.60347826 C58.9052358,3.60347826 59.6959906,3.82869565 60.1033491,4.32173913 C60.2850176,4.55754004 60.3803201,4.85019973 60.3729245,5.14956522 C60.3729245,6.47043478 58.917217,6.75043478 57.7011321,6.75043478 L57.0062264,6.75043478 L57.0062264,3.70695652 C57.2347804,3.65252109 57.4670905,3.61589294 57.7011321,3.5973913 L57.7011321,3.5973913 L57.7071226,3.60347826 Z M67.447783,2.59913043 C67.5196698,3.56086957 67.5675943,5.96521739 67.5675943,6.86 C67.5675943,7.75478261 67.5675943,10.3721739 67.4358019,11.5408696 L67.4358019,11.626087 L69.9338679,11.626087 L69.9338679,11.5652174 C69.85,10.7313043 69.8140566,9.13043478 69.808066,7.91304348 L70.6167925,7.91304348 C73.9056132,7.91304348 75.5050943,7.01826087 75.5050943,5.16782609 C75.5050943,3.05565217 73.2646226,2.5626087 71.3835849,2.52608696 L67.4657547,2.52608696 L67.4657547,2.59913043 L67.4657547,2.59913043 L67.447783,2.59913043 Z M70.5089623,3.60347826 C71.6771226,3.60347826 72.5038208,3.82869565 72.9051887,4.32173913 C73.0859732,4.55802038 73.1811682,4.85035 73.1747642,5.14956522 C73.1747642,6.47043478 71.7250472,6.75043478 70.5029717,6.75043478 L69.8140566,6.75043478 L69.8140566,5.59391304 C69.8140566,4.98521739 69.8140566,4.37652174 69.8440094,3.71304348 C70.0628783,3.66210963 70.2851232,3.62752445 70.5089623,3.60956522 L70.5089623,3.60956522 L70.5089623,3.60347826 Z M78.8298585,2.52 L78.7879245,2.52 L78.7879245,2.56869565 C78.3206604,3.86521739 75.3373585,10.4817391 74.8700943,11.5104348 L74.8161792,11.6382609 L76.9548113,11.6382609 L76.9548113,11.5652174 C77.1405189,10.9565217 77.3801415,10.2382609 77.6616981,9.4773913 L81.2560377,9.4773913 C81.639434,10.4573913 81.9269811,11.206087 82.052783,11.5713043 L82.052783,11.62 L84.5328774,11.62 L80.5371698,2.48956522 L78.8598113,2.48956522 L78.8298585,2.52 Z M79.4289151,5.20434783 C79.6266038,5.63043478 80.1417925,6.85391304 80.7168868,8.29652174 L78.1169811,8.29652174 C78.5842453,7.13391304 79.0455189,6.08695652 79.4349057,5.20434783 L79.4349057,5.20434783 L79.4289151,5.20434783 Z M85.4913679,2.60521739 C85.5572642,3.56695652 85.6111792,5.96521739 85.6111792,6.86608696 C85.6111792,7.76695652 85.6111792,10.3782609 85.4733962,11.5469565 L85.4733962,11.6443478 L87.9714623,11.6443478 L87.9714623,11.5652174 C87.8456604,10.3904348 87.8396698,7.68782609 87.8396698,6.87826087 C87.8396698,6.26956522 87.8396698,4.82086957 87.9115566,3.69478261 C88.1152358,3.69478261 88.3967925,3.64608696 88.5884906,3.64 C89.7566509,3.64 90.5833491,3.86521739 90.984717,4.35826087 C91.1682081,4.59306548 91.2637357,4.88641659 91.2542925,5.18608696 C91.2542925,6.23913043 90.2778302,6.76869565 89.3732547,6.8173913 C89.197946,6.83473661 89.0213936,6.83473661 88.8460849,6.8173913 L88.6603774,6.8173913 L88.7682075,6.98173913 C89.6428302,8.29652174 90.9727358,10.5913043 91.5298585,11.6808696 L91.5298585,11.7173913 L94.2016509,11.7173913 L94.1357547,11.5652174 C94.0399057,11.4191304 92.2906604,8.80782609 91.5478302,7.68782609 L91.4999057,7.62086957 C92.8597642,7.20695652 93.5307075,6.40347826 93.5307075,5.2226087 C93.5307075,3.11043478 91.2842453,2.62347826 89.4091981,2.58086957 L85.4853774,2.58086957 L85.4853774,2.58086957 L85.4853774,2.58086957 L85.4913679,2.60521739 Z M97.7600472,2.50782609 L95.3638208,2.50782609 L95.3638208,2.59913043 C95.4357075,3.56695652 95.4836321,5.96521739 95.4836321,6.86 C95.4836321,7.75478261 95.4836321,10.366087 95.3518396,11.5408696 L95.3518396,11.626087 L97.8499057,11.626087 L97.8499057,11.5652174 C97.7300943,10.3904348 97.7181132,7.68782609 97.7181132,6.88434783 C97.7181132,6.08086957 97.7720283,3.5973913 97.8379245,2.62347826 L97.8379245,2.50782609 L97.7600472,2.50782609 L97.7600472,2.50782609 Z M100.096368,2.60521739 C100.168255,3.56695652 100.216179,5.97130435 100.216179,6.86608696 C100.216179,7.76086957 100.216179,10.3782609 100.084387,11.5469565 L100.084387,11.6443478 L104.277783,11.6443478 C106.314575,11.6443478 108.471179,10.9869565 108.471179,9.1426087 C108.471179,7.98608696 107.644481,7.12782609 106.074953,6.65913043 C107.20717,6.35478261 107.979953,5.55130435 107.979953,4.63826087 C107.979953,3.13478261 106.278632,2.5626087 104.679151,2.53217391 L100.078396,2.53217391 L100.078396,2.60521739 L100.078396,2.60521739 L100.096368,2.60521739 Z M103.319292,3.53043478 C105.056557,3.53043478 105.715519,3.90173913 105.715519,4.86956522 C105.717756,5.11481801 105.632651,5.35262335 105.475896,5.53913043 C104.992072,5.99488064 104.331994,6.20503283 103.678726,6.11130435 L103.636792,6.11130435 L103.163538,7.39565217 L103.636792,7.39565217 C104.457951,7.3122667 105.272314,7.60970753 105.853302,8.20521739 C106.046226,8.4341714 106.152434,8.72554863 106.15283,9.02695652 C106.15283,10.0434783 105.284198,10.5608696 103.570896,10.5608696 L102.510566,10.5608696 C102.45066,9.22782609 102.44467,7.41391304 102.44467,6.87217391 C102.44467,6.33043478 102.44467,4.81478261 102.516557,3.60956522 C102.781697,3.56278 103.05019,3.53834896 103.319292,3.53652174 L103.319292,3.53652174 L103.319292,3.53043478 Z M114.593538,2.50782609 L112.910189,2.50782609 L112.910189,2.55652174 C112.418962,3.93217391 109.255943,10.926087 108.992358,11.4982609 L108.932453,11.62 L111.077075,11.62 L111.077075,11.5652174 C111.262783,10.9565217 111.502406,10.2382609 111.783962,9.4773913 L115.330377,9.4773913 C115.719764,10.4573913 116.001321,11.2 116.127123,11.5713043 L116.127123,11.62 L118.613208,11.62 L114.6175,2.48956522 L114.581557,2.48956522 L114.593538,2.50782609 Z M113.56316,5.19217391 C113.760849,5.62434783 114.270047,6.84173913 114.851132,8.27826087 L112.251226,8.27826087 C112.7125,7.12173913 113.173774,6.08695652 113.56316,5.19217391 L113.56316,5.19217391 Z M119.326085,4.86956522 C119.326085,6.47043478 120.913585,7.12173913 122.321368,7.69391304 C123.411651,8.13826087 124.531887,8.60695652 124.531887,9.36782609 C124.543263,9.56979078 124.481464,9.76899787 124.35816,9.92782609 C124.100566,10.2382609 123.561415,10.3721739 122.722736,10.3356522 C121.744745,10.2501352 120.791481,9.9775222 119.91316,9.53217391 L119.475849,9.33130435 L119.475849,11.3217391 L119.757406,11.3826087 L119.931132,11.4191304 C120.757022,11.6409022 121.605261,11.7654878 122.459151,11.7904348 C125.089009,11.7904348 126.652547,10.7313043 126.652547,8.96 C126.652547,7.31652174 125.029104,6.65913043 123.597358,6.08086957 C122.537028,5.65478261 121.446745,5.21043478 121.446745,4.51043478 C121.446745,4.30347826 121.446745,3.69478261 122.800613,3.69478261 C123.680198,3.74214982 124.542572,3.9612122 125.340613,4.34 L125.855802,4.55304348 L125.855802,2.55043478 L125.346604,2.43478261 C124.609989,2.27253441 123.859693,2.18284391 123.106132,2.16695652 C120.847689,2.1973913 119.326085,3.26869565 119.326085,4.86956522 Z M63.0566981,18.0478261 L63.0566981,19.32 C61.8885377,19.2347826 59.8337736,19.2165217 59.8158019,19.2165217 C59.6401938,19.2073806 59.4642402,19.2073806 59.2886321,19.2165217 L59.2886321,21.3408696 L61.9125,21.286087 L61.9125,22.5034783 L59.2646698,22.5034783 L59.2646698,22.6617391 C59.2607773,23.7125075 59.3087621,24.7628128 59.4084434,25.8086957 L56.8624528,25.8086957 C56.9762736,24.5913043 56.9762736,22.4 56.9762736,21.7365217 C56.9762736,21.0730435 56.9762736,18.906087 56.8924057,18.0295652 L63.0566981,18.0295652 L63.0566981,18.0295652 L63.0566981,18.0478261 Z M68.4482075,26.0521739 C67.3985409,26.1170592 66.3665838,25.7550252 65.5799211,25.0459138 C64.7932583,24.3368024 64.316508,23.3388614 64.2548113,22.2721739 L64.2548113,21.9495652 C64.2548113,19.5147826 66.0519811,17.8469565 68.4482075,17.8469565 C70.6781354,17.8469565 72.4858491,19.683757 72.4858491,21.9495652 C72.4858491,24.2153734 70.6781354,26.0521739 68.4482075,26.0521739 L68.4482075,26.0521739 L68.4482075,26.0521739 Z M68.4482075,18.8452174 C67.3399528,18.8452174 66.6510377,19.9408696 66.6510377,21.9495652 C66.6510377,23.9582609 67.3459434,24.9930435 68.4482075,24.9930435 C69.5504717,24.9930435 70.2453774,23.9278261 70.2453774,21.9495652 C70.2453774,19.9713043 69.5444811,18.8695652 68.4482075,18.8695652 L68.4482075,18.8695652 L68.4482075,18.8452174 Z M78.1888679,18.0478261 C79.8662264,18.0478261 81.8670755,18.6565217 81.8670755,20.4826087 C81.8670755,21.4504348 81.1541981,22.1443478 80.0699057,22.5886957 C80.2975472,22.9965217 82.1606132,25.4495652 82.5260377,25.8513043 L79.7823585,25.8513043 C79.071478,24.504058 78.298695,23.1953623 77.4640094,21.9252174 C78.5542925,22.0652174 79.512783,21.5356522 79.512783,20.4643478 C79.512783,19.3930435 78.3446226,19.1373913 77.7815094,19.1373913 L76.8589623,19.1373913 C76.8170283,20.0869565 76.7990566,21.2313043 76.7990566,21.7486957 C76.7990566,22.4243478 76.7990566,24.6521739 76.9248585,25.8330435 L74.3668868,25.8330435 C74.4904774,24.4753924 74.54247,23.1119934 74.5226415,21.7486957 C74.5477161,20.5156871 74.5057181,19.2822127 74.3968396,18.053913 L78.1768868,18.053913 L78.1888679,18.0478261 Z M90.3017925,18.0478261 L90.3017925,19.32 C89.4906922,19.2156246 88.6749507,19.152647 87.8576415,19.1313043 C87.8157075,20.0382609 87.7977358,21.2373913 87.7977358,21.7426087 C87.7977358,22.406087 87.7977358,24.646087 87.9415094,25.8269565 L85.3715566,25.8269565 C85.4973585,24.6095652 85.5153302,22.406087 85.5153302,21.7426087 C85.5153302,21.2495652 85.4733962,19.9530435 85.4733962,19.1313043 C84.6478644,19.147215 83.8238631,19.2102127 83.005283,19.32 L83.005283,18.0478261 L90.3017925,18.0478261 L90.3017925,18.0478261 Z M94.5910377,18.0478261 C94.5311321,18.9243478 94.4891981,21.0121739 94.4891981,21.7547826 C94.4891981,22.4973913 94.4891981,24.7617391 94.5910377,25.8269565 L92.0630189,25.8269565 C92.1888208,24.6095652 92.2067925,22.4182609 92.2067925,21.7547826 C92.2067925,21.0913043 92.1648585,18.9243478 92.1049528,18.0478261 L94.5910377,18.0478261 L94.5910377,18.0478261 Z M100.054434,17.8469565 C100.908252,17.8398394 101.758952,17.9524965 102.582453,18.1817391 L102.582453,20.16 C101.765479,19.6008914 100.811094,19.2846712 99.8267925,19.2469565 C98.9581604,19.2469565 98.9042453,19.593913 98.9042453,19.8556522 C98.9042453,21.1704348 103.271368,21.1826087 103.271368,23.5078261 C103.271368,25.0417391 101.863585,26.0034783 99.5212736,26.0034783 C98.5919242,26.0022566 97.6690796,25.8459744 96.7895755,25.5408696 L96.7895755,23.6782609 C98.3950472,24.4452174 99.2457075,24.6886957 99.9885377,24.6886957 C100.587594,24.6886957 101.024906,24.4147826 101.024906,23.8973913 C101.024906,22.4121739 96.6757547,22.5521739 96.6757547,20.0321739 C96.6458019,18.6443478 98.0116509,17.8469565 100.042453,17.8469565 L100.054434,17.8469565 Z" id="Shape" fill="#1D1D1B"></path>
                </g>
            </g>
        </g>
    </g>
</svg>